# AST/ASF file generated using VICON BodyLanguage
# -----------------------------------------------
:version 1.10
:name VICON
:units
  mass 1.0
  length 0.45
  angle deg
:documentation
   .ast/.asf automatically generated from VICON data using
   VICON BodyBuilder and BodyLanguage model FoxedUp or BRILLIANT.MOD
:root
   order TX TY TZ RX RY RZ
   axis XYZ
   position 0 0 0  
   orientation 0 0 0 
:bonedata
  begin
     id 1 
     name lhipjoint
     direction 0.630305 -0.712092 0.309259 
     length 2.29033 
     axis 0 0 0  XYZ
  end
  begin
     id 2 
     name lfemur
     direction 0.34202 -0.939693 0  
     length 6.43538  
     axis 0 0 20  XYZ
    dof rx ry rz
    limits (-160.0 20.0)
           (-70.0 70.0)
           (-60.0 70.0)
  end
  begin
     id 3 
     name ltibia
     direction 0.34202 -0.939693 0   
     length 7.43097   
     axis 0 0 20   XYZ
    dof rx
    limits (-10.0 170.0)
  end
  begin
     id 4 
     name lfoot
     direction 0.0334653 -0.0919451 0.995202   
     length 1.78438   
     axis -90 7.62852e-016 20   XYZ
    dof rx rz
    limits (-45.0 90.0)
           (-70.0 20.0)
  end
  begin
     id 5 
     name ltoes
     direction 1.53535e-011 -4.21933e-011 1   
     length 0.90832   
     axis -90 7.62852e-016 20   XYZ
    dof rx
    limits (-90.0 20.0)
  end
  begin
     id 6 
     name rhipjoint
     direction -0.682059 -0.67077 0.291312   
     length 2.43143  
     axis 0 0 0  XYZ 
  end
  begin
     id 7 
     name rfemur
     direction -0.34202 -0.939693 0   
     length 6.63488   
     axis 0 0 -20   XYZ
    dof rx ry rz
    limits (-160.0 20.0)
           (-70.0 70.0)
           (-70.0 60.0)
  end
  begin
     id 8 
     name rtibia
     direction -0.34202 -0.939693 0   
     length 6.86532   
     axis 0 0 -20   XYZ
    dof rx
    limits (-10.0 170.0)
 end
 begin
     id 9 
     name rfoot
     direction -0.105199 -0.289033 0.951521   
     length 1.77126  
     axis -90 -7.62852e-016 -20   XYZ
    dof rx rz
    limits (-45.0 90.0)
           (-20.0 70.0)
  end
  begin
     id 10 
     name rtoes
     direction -1.53551e-011 -4.21978e-011 1   
     length 0.889273   
     axis -90 -7.62852e-016 -20   XYZ
    dof rx
    limits (-90.0 20.0)
  end
  begin
     id 11 
     name lowerback
     direction -0.0514305 0.998089 0.034245   
     length 2.02077   
     axis 0 0 0   XYZ
    dof rx ry rz
    limits (-20.0 45.0)
           (-30.0 30.0)
           (-30.0 30.0)
  end
  begin
     id 12 
     name upperback
     direction 0.0203189 0.999449 -0.0262315   
     length 2.01413   
     axis 0 0 0   XYZ
    dof rx ry rz
    limits (-20.0 45.0)
           (-30.0 30.0)
           (-30.0 30.0)
  end
  begin
     id 13 
     name thorax
     direction 0.0452736 0.998142 -0.0407729   
     length 2.02986   
     axis 0 0 0   XYZ
    dof rx ry rz
    limits (-20.0 45.0)
           (-30.0 30.0)
           (-30.0 30.0)
  end
  begin
     id 14 
     name lowerneck
     direction -0.0180464 0.999645 -0.0195774   
     length 1.59034   
     axis 0 0 0   XYZ
    dof rx ry rz
    limits (-20.0 45.0)
           (-30.0 30.0)
           (-30.0 30.0)
  end
  begin
     id 15 
     name upperneck
     direction 0.0732272 0.979935 -0.18538   
     length 1.57486   
     axis 0 0 0   XYZ
    dof rx ry rz
    limits (-20.0 45.0)
           (-30.0 30.0)
           (-30.0 30.0)
  end
  begin
     id 16
     name head
     direction 0.0252963 0.997909 -0.059472  
     length 1.60334  
     axis 0 0 0   XYZ
    dof rx ry rz
    limits (-20.0 45.0)
           (-30.0 30.0)
           (-30.0 30.0)
  end
  begin
     id 17 
     name lclavicle
     direction 0.943819 0.330449 0.00315172  
     length 3.50322  
     axis 0 0 0   XYZ
    dof ry rz
    limits (-20.0 10.0)
           (0.0 20.0)
  end
  begin
     id 18 
     name lhumerus
     direction 1 -4.48949e-011 2.22502e-028   
     length 4.63208   
     axis 180 -30 -90   XYZ
    dof rx ry rz
    limits (-60.0 90.0)
           (-90.0 90.0)
           (-90.0 90.0)
  end
  begin
     id 19
     name lradius
     direction 1 -4.48967e-011 -4.10197e-027   
     length 3.41924   
     axis 180 -30 -90   XYZ
    dof rx
    limits (-10.0 170.0)
  end
  begin
     id 20
     name lwrist
     direction 1 -4.48987e-011 -1.24264e-027   
     length 1.70962   
     axis 2.50585e-015 90 90   XYZ
    dof ry
    limits (-180.0 0.0)
 end
  begin
     id 21 
     name lhand
     direction 1 -4.48983e-011 -2.48528e-027   
     length 0.62537   
     axis 1.58582e-015 90 90   XYZ
    dof rx rz
    limits (-90.0 90.0)
           (-45.0 45.0)
  end
  begin
     id 22 
     name lfingers
     direction 1 -4.48896e-011 -4.97056e-027   
     length 0.50419   
     axis 3.17164e-015 90 90   XYZ
    dof rx
    limits (0.0 90.0)
  end
  begin
     id 23
     name lthumb
     direction 0.707107 -6.34803e-011 0.707107   
     length 0.723919   
     axis -90 45 2.85299e-015   XYZ
    dof rx rz
    limits (-45.0 45.0)
           (-45.0 45.0)
  end
  begin
     id 24 
     name rclavicle
     direction -0.964499 0.260664 -0.0423695   
     length 3.91997  
     axis 0 0 0   XYZ 
    dof ry rz
    limits (-10.0 20.0)
           (-20.0 0.0)
  end
  begin
     id 25 
     name rhumerus
     direction -1 -4.48957e-011 -1.98656e-027  
     length 4.4064   
     axis 180 30 90   XYZ
    dof rx ry rz
    limits (-90.0 60.0)
           (-90.0 90.0)
           (-90.0 90.0)
  end
  begin
     id 26 
     name rradius
     direction -1 -4.48968e-011 1.96972e-027   
     length 3.44675   
     axis 180 30 90   XYZ
    dof rx
    limits (-10.0 170.0)
  end
  begin
     id 27 
     name rwrist
     direction -1 -4.48974e-011 -1.24264e-027   
     length 1.72338   
     axis 2.50585e-015 -90 -90   XYZ
    dof ry
    limits (-180.0 0.0)
  end
  begin
     id 28
     name rhand
     direction -1 -4.48901e-011 -2.48528e-027   
     length 0.513674   
     axis 1.58582e-015 -90 -90   XYZ
    dof rx rz
    limits (-90.0 90.0)
           (-45.0 45.0)
  end
  begin
     id 29
     name rfingers
     direction -1 -4.48946e-011 -4.97056e-027   
     length 0.414137   
     axis 3.17164e-015 -90 -90   XYZ
    dof rx
    limits (0.0 90.0)
  end
  begin
     id 30
     name rthumb
     direction -0.707107 -6.34859e-011 0.707107   
     length 0.59462   
     axis -90 -45 -2.85299e-015   XYZ
    dof rx rz
    limits (-45.0 45.0)
           (-45.0 45.0)
  end
:hierarchy
  begin
    root lhipjoint rhipjoint lowerback
    lhipjoint lfemur
    lfemur ltibia
    ltibia lfoot
    lfoot ltoes
    rhipjoint rfemur
    rfemur rtibia
    rtibia rfoot
    rfoot rtoes
    lowerback upperback
    upperback thorax
    thorax lowerneck lclavicle rclavicle
    lowerneck upperneck
    upperneck head
    lclavicle lhumerus
    lhumerus lradius
    lradius lwrist
    lwrist lhand lthumb
    lhand lfingers
    rclavicle rhumerus
    rhumerus rradius
    rradius rwrist
    rwrist rhand rthumb
    rhand rfingers
  end

#!OML:ASF E:\inclinewalkrobotboard\Project 1\Capture day 1\Session 1\subject1.ASF
:FULLY-SPECIFIED
:DEGREES
190
root 7.85831 17.6764 -9.61193 -171.074 -31.0868 -180.392
lowerback -3.81733 -5.978 -6.12779
upperback 0.876168 -7.92964 4.61027
thorax 4.55205 -4.22052 7.56782
lowerneck -7.64544 -3.55963 -7.05817
upperneck 26.2826 -7.25764 5.42745
head 10.0284 -4.16086 2.19462
rclavicle -7.27552e-014 -2.78299e-014
rhumerus -53.7327 -11.1873 -64.8627
rradius 38.0936
rwrist 13.3087
rhand -21.1664 -39.8284
rfingers 7.12502
rthumb 5.21368 -69.7442
lclavicle -7.27552e-014 -2.78299e-014
lhumerus -10.0044 -52.9294 102.284
lradius 62.2035
lwrist -14.0362
lhand -38.9573 -28.5737
lfingers 7.12502
lthumb -11.9625 1.06444
rfemur -39.0978 -1.25668 12.5239
rtibia 22.5944
rfoot 26.5749 -11.7018
rtoes -16.3002
lfemur -3.22329 -10.0949 -20.6281
ltibia 31.0805
lfoot 27.9005 1.57899
ltoes -57.9946
191
root 7.80464 17.4173 -9.94024 -170.143 -32.5316 -181.697
lowerback -4.73465 -5.84372 -6.62143
upperback 0.730475 -7.63602 4.24785
thorax 4.87671 -4.07217 7.41068
lowerneck -7.97479 -4.09485 -7.53728
upperneck 26.012 -7.85087 5.67923
head 10.0718 -4.4047 2.2899
rclavicle -2.70347e-014 -3.97569e-015
rhumerus -51.7305 -9.944 -64.5376
rradius 38.884
rwrist 13.0798
rhand -21.1179 -40.5021
rfingers 7.12502
rthumb 5.26054 -70.4168
lclavicle -2.70347e-014 -3.97569e-015
lhumerus -12.2023 -52.5822 102.635
lradius 61.7652
lwrist -14.7631
lhand -39.0566 -28.9421
lfingers 7.12502
lthumb -12.0583 0.690446
rfemur -35.863 -2.07853 11.8095
rtibia 21.9198
rfoot 27.774 -15.1384
rtoes -7.01266
lfemur -3.22618 -10.3409 -20.9777
ltibia 33.2545
lfoot 26.0067 0.621938
ltoes -56.7799
192
root 7.77597 17.1211 -10.2727 -169.015 -33.3935 -182.28
lowerback -6.08715 -5.61744 -6.75918
upperback 0.424359 -7.2315 4.08441
thorax 5.23617 -3.86517 7.25755
lowerneck -7.97281 -4.73271 -7.69724
upperneck 25.5001 -8.49378 5.34392
head 9.93282 -4.70739 2.12675
rclavicle -4.48259e-014 -5.56597e-015
rhumerus -49.6289 -8.7013 -64.2212
rradius 39.3925
rwrist 13.0349
rhand -21.5449 -40.8108
rfingers 7.12502
rthumb 4.84825 -70.7353
lclavicle -4.48259e-014 -5.56597e-015
lhumerus -14.7398 -51.4833 103.002
lradius 61.3197
lwrist -15.3146
lhand -39.2002 -28.7027
lfingers 7.12502
lthumb -12.1967 0.9217
rfemur -34.0933 -2.33903 12.2544
rtibia 22.8138
rfoot 27.5773 -14.5654
rtoes -22.5357
lfemur -4.40161 -10.0152 -20.2163
ltibia 36.8114
lfoot 23.4961 -0.129599
ltoes -54.0655
193
root 7.75213 16.8049 -10.612 -168.208 -34.2854 -183.1
lowerback -6.76464 -5.4414 -7.0822
upperback 0.0602397 -6.9044 3.75153
thorax 5.16742 -3.6835 7.09001
lowerneck -8.07711 -5.22233 -8.25384
upperneck 25.2781 -9.08721 5.65588
head 9.96411 -4.97314 2.25504
rclavicle 2.82274e-014 -1.11319e-014
rhumerus -47.7967 -7.57658 -63.9771
rradius 39.6171
rwrist 13.4135
rhand -22.4557 -40.8638
rfingers 7.12502
rthumb 3.96868 -70.8066
lclavicle 2.82274e-014 -1.11319e-014
lhumerus -17.7561 -49.4473 103.629
lradius 60.5324
lwrist -16.1878
lhand -39.3556 -27.1277
lfingers 7.12502
lthumb -12.3465 2.48775
rfemur -32.3973 -3.58512 12.9441
rtibia 24.7588
rfoot 13.2257 -9.95233
rtoes -24.3683
lfemur -4.99412 -9.85587 -19.6479
ltibia 39.5443
lfoot 22.4094 -1.29371
ltoes -52.1518
194
root 7.73232 16.5021 -10.955 -168.91 -34.6151 -183.653
lowerback -6.10874 -5.05918 -7.42441
upperback 0.0766026 -6.37498 3.31011
thorax 4.70327 -3.39972 6.94473
lowerneck -7.72186 -5.50776 -7.64781
upperneck 25.4369 -9.42788 4.73436
head 9.90413 -5.18529 1.80149
rclavicle -7.65321e-015 2.46493e-014
rhumerus -46.0673 -6.76947 -64.0623
rradius 39.6759
rwrist 14.2192
rhand -23.4876 -40.89
rfingers 7.12502
rthumb 2.97225 -70.849
lclavicle -7.65321e-015 2.46493e-014
lhumerus -20.4317 -47.2486 103.94
lradius 58.8501
lwrist -15.5912
lhand -39.6124 -25.003
lfingers 7.12502
lthumb -12.5941 4.59735
rfemur -29.6666 -5.18318 13.9122
rtibia 25.7725
rfoot 4.89918 -7.27613
rtoes -23.4677
lfemur -3.57486 -9.47614 -19.2013
ltibia 41.5829
lfoot 21.9767 -1.1137
ltoes -46.6411
195
root 7.74738 16.2368 -11.2554 -171.04 -33.9977 -183.553
lowerback -3.76072 -4.36722 -7.68018
upperback 0.375558 -5.57566 3.03734
thorax 3.5458 -2.9684 7.06776
lowerneck -7.48087 -5.52866 -7.47765
upperneck 25.4304 -9.51774 4.75867
head 9.8542 -5.21828 1.77962
rclavicle 7.64327e-014 -2.38542e-015
rhumerus -44.0219 -6.4169 -64.4808
rradius 39.8075
rwrist 14.6957
rhand -22.9095 -42.5526
rfingers 7.12502
rthumb 3.53045 -72.5031
lclavicle 7.64327e-014 -2.38542e-015
lhumerus -21.7768 -43.9286 103.307
lradius 56.24
lwrist -15.6172
lhand -40.6195 -24.5772
lfingers 7.12502
lthumb -13.565 4.96096
rfemur -27.2614 -4.15163 14.7611
rtibia 27.229
rfoot -2.81111 -6.66801
rtoes -16.0778
lfemur -1.10689 -8.6381 -18.4162
ltibia 43.4766
lfoot 21.6418 -0.773309
ltoes -40.9011
196
root 7.75331 15.9996 -11.4864 -172.363 -31.5533 -182.272
lowerback -2.67141 -3.26591 -6.52876
upperback 0.437171 -4.22282 3.0118
thorax 2.65708 -2.24212 6.57569
lowerneck -7.15014 -5.45524 -7.04704
upperneck 24.4549 -9.3094 4.77388
head 9.40775 -5.05229 1.76613
rclavicle -3.96575e-014 -5.56597e-015
rhumerus -41.7639 -6.39734 -65.381
rradius 39.7541
rwrist 15.6814
rhand -22.6138 -43.112
rfingers 7.12502
rthumb 3.81608 -73.0576
lclavicle -3.96575e-014 -5.56597e-015
lhumerus -22.3893 -39.7374 102.126
lradius 52.9705
lwrist -15.8526
lhand -41.5445 -23.208
lfingers 7.12502
lthumb -14.4563 6.26844
rfemur -27.6656 -1.67068 16.6982
rtibia 30.0199
rfoot -7.90967 -5.43787
rtoes -24.7346
lfemur -0.360555 -6.763 -16.854
ltibia 45.5865
lfoot 21.0857 -0.420466
ltoes -37.4857
197
root 7.73229 15.817 -11.7238 -172.183 -29.63 -181.996
lowerback -3.2267 -2.66984 -5.97561
upperback 0.559601 -3.40407 2.75812
thorax 2.91175 -1.83097 6.02179
lowerneck -7.01443 -5.30421 -6.90062
upperneck 23.8968 -9.08073 5.03691
head 9.17553 -4.89081 1.87099
rclavicle -9.79014e-014 -8.74653e-015
rhumerus -39.4458 -6.50753 -66.9267
rradius 40.1802
rwrist 15.0183
rhand -22.3209 -44.2574
rfingers 7.12502
rthumb 4.09891 -74.1977
lclavicle -9.79014e-014 -8.74653e-015
lhumerus -22.9691 -34.9595 100.446
lradius 49.4652
lwrist -16.5946
lhand -42.4348 -26.1694
lfingers 7.12502
lthumb -15.314 3.24358
rfemur -28.5869 -0.913058 17.7796
rtibia 32.4542
rfoot -11.4116 -3.6978
rtoes -23.362
lfemur -0.627857 -5.79846 -16.535
ltibia 47.7233
lfoot 21.0199 -0.782485
ltoes -36.1917
198
root 7.74675 15.6853 -11.9134 -170.652 -27.9175 -182.806
lowerback -4.09606 -2.37192 -6.69878
upperback 0.446885 -2.90264 2.36444
thorax 3.22545 -1.59168 6.02544
lowerneck -6.46721 -5.11633 -6.87795
upperneck 22.9787 -8.81529 5.4727
head 8.75556 -4.71532 2.07288
rclavicle -6.62947e-014 3.97569e-016
rhumerus -37.3624 -6.3004 -68.9868
rradius 41.0367
rwrist 14.164
rhand -21.5037 -45.5253
rfingers 7.12502
rthumb 4.88802 -75.4489
lclavicle -6.62947e-014 3.97569e-016
lhumerus -23.6884 -29.614 98.3136
lradius 46.5085
lwrist -18.6064
lhand -41.67 -24.7949
lfingers 7.12502
lthumb -14.5773 4.67286
rfemur -32.0156 0.0722425 17.6145
rtibia 37.1038
rfoot -12.9036 -3.05222
rtoes -22.8961
lfemur -2.70083 -5.61161 -17.3652
ltibia 50.5379
lfoot 21.3067 -1.64676
ltoes -37.8968
199
root 7.7519 15.6433 -12.0672 -170.614 -26.6802 -182.977
lowerback -3.58738 -2.17304 -6.82117
upperback 0.74711 -2.6505 2.17476
thorax 3.20914 -1.47325 5.92714
lowerneck -5.9955 -4.93695 -6.7665
upperneck 22.0187 -8.52085 5.7557
head 8.32784 -4.5298 2.20493
rclavicle 2.50469e-014 4.37326e-015
rhumerus -35.5749 -5.04623 -71.6406
rradius 42.4154
rwrist 11.3742
rhand -21.3433 -46.1485
rfingers 7.12502
rthumb 5.04285 -76.0685
lclavicle 2.50469e-014 4.37326e-015
lhumerus -24.2704 -24.1757 95.8815
lradius 43.245
lwrist -20.7969
lhand -41.8182 -26.2035
lfingers 7.12502
lthumb -14.72 3.25386
rfemur -33.8661 1.09611 17.839
rtibia 41.2152
rfoot -14.1976 -2.56516
rtoes -23.7351
lfemur -3.77843 -6.15462 -17.9861
ltibia 53.1805
lfoot 21.8139 -1.93005
ltoes -39.7014
200
root 7.75961 15.6305 -12.218 -170.67 -26.1824 -183.344
lowerback -3.14553 -2.2729 -7.29594
upperback 1.22942 -2.78259 2.07856
thorax 3.50456 -1.5749 6.09162
lowerneck -5.98173 -4.77883 -6.61171
upperneck 21.4212 -8.20509 5.75708
head 8.09548 -4.34663 2.21846
rclavicle 6.95746e-016 9.93923e-015
rhumerus -34.2608 -3.71253 -74.084
rradius 43.9254
rwrist 9.32107
rhand -20.8775 -46.0693
rfingers 7.12502
rthumb 5.49259 -75.9781
lclavicle 6.95746e-016 9.93923e-015
lhumerus -24.8948 -19.8099 93.6962
lradius 39.8769
lwrist -21.1354
lhand -42.0151 -24.8619
lfingers 7.12502
lthumb -14.9097 4.58148
rfemur -33.8278 0.982308 17.8282
rtibia 42.4653
rfoot -14.466 -1.7957
rtoes -24.9709
lfemur -4.65482 -7.53082 -18.8474
ltibia 55.0458
lfoot 22.5608 -0.529819
ltoes -38.2211
201
root 7.76953 15.6468 -12.3681 -170.871 -26.5358 -183.218
lowerback -2.82847 -2.55449 -7.35247
upperback 1.61436 -3.18315 2.20085
thorax 3.80466 -1.80546 6.22588
lowerneck -5.74099 -4.63114 -6.49972
upperneck 21.0174 -7.94268 5.64373
head 7.88959 -4.21946 2.19892
rclavicle 4.36332e-014 -1.66979e-014
rhumerus -33.9586 -2.75538 -76.1372
rradius 45.2067
rwrist 8.76803
rhand -21.7972 -43.0596
rfingers 7.12502
rthumb 4.60456 -72.9895
lclavicle 4.36332e-014 -1.66979e-014
lhumerus -25.4646 -16.322 91.7154
lradius 35.9334
lwrist -20.352
lhand -42.3133 -25.3467
lfingers 7.12502
lthumb -15.197 4.07519
rfemur -33.0727 0.7315 18.2884
rtibia 42.5821
rfoot -15.0943 -1.80601
rtoes -24.3686
lfemur -5.86717 -9.16531 -18.9845
ltibia 56.4464
lfoot 23.1784 -2.59906
ltoes -48.5159
